<?xml version="1.0" standalone="no"?>
<!DOCTYPE svg PUBLIC "-//W3C//DTD SVG 1.1//EN" "http://www.w3.org/Graphics/SVG/1.1/DTD/svg11.dtd" >
<svg xmlns="http://www.w3.org/2000/svg" xmlns:xlink="http://www.w3.org/1999/xlink" version="1.1" viewBox="-10 0 267 1000">
   <path fill="currentColor"
d="M134 693v10c33 0 83 -60 90 -66c6 -4 9 -4 11 -4c2 1 12 6 12 16c-1 5 -6 21 -10 39c0 0 -98 351 -101 353c-10 8 -24 10 -35 10c-6 0 -29 -1 -29 -13c18 -66 90 -265 93 -280c1 -4 1 -8 1 -11c0 -5 -1 -9 -5 -9c-1 0 -3 0 -5 1c-13 7 -22 11 -36 15c-11 4 -25 7 -39 7
c-19 0 -38 -6 -54 -17c-15 -12 -27 -30 -27 -51c0 -37 30 -67 67 -67s67 30 67 67z" />
</svg>
