<?xml version="1.0" standalone="no"?>
<!DOCTYPE svg PUBLIC "-//W3C//DTD SVG 1.1//EN" "http://www.w3.org/Graphics/SVG/1.1/DTD/svg11.dtd" >
<svg xmlns="http://www.w3.org/2000/svg" xmlns:xlink="http://www.w3.org/1999/xlink" version="1.1" viewBox="-15 0 709 1000">
   <path fill="currentColor"
d="M252 538c173 0 279 116 279 290c0 304 -260 482 -506 602c-6 3 -12 5 -17 5c-9 0 -13 -6 -13 -12c0 -8 6 -13 15 -18c233 -133 371 -289 371 -568c0 -157 -46 -261 -152 -261c-102 0 -162 73 -162 113c0 10 3 18 16 18s23 -7 50 -7c49 0 96 40 96 104
c0 62 -43 106 -106 106c-81 0 -123 -69 -123 -149c0 -96 78 -223 252 -223zM629 620c31 0 55 24 55 55s-24 55 -55 55s-55 -24 -55 -55s24 -55 55 -55zM630 871c31 0 54 23 54 54s-23 54 -54 54s-54 -23 -54 -54s23 -54 54 -54z" />
</svg>
