<?xml version="1.0" standalone="no"?>
<!DOCTYPE svg PUBLIC "-//W3C//DTD SVG 1.1//EN" "http://www.w3.org/Graphics/SVG/1.1/DTD/svg11.dtd" >
<svg xmlns="http://www.w3.org/2000/svg" xmlns:xlink="http://www.w3.org/1999/xlink" version="1.1" viewBox="-10 0 246 1000">
   <path fill="currentColor"
d="M12 970c-8 -10 -12 -581 -12 -581c1 -18 17 -28 31 -28c10 0 19 6 19 17c0 20 -6 260 -7 282c0 7 4 14 11 17c2 1 3 1 5 1c5 0 16 -9 22 -14c14 -9 38 -17 55 -17c46 3 90 39 90 96c0 46 -31 107 -120 169c-25 17 -49 44 -79 61c0 0 -3 2 -6 2s-6 -1 -9 -5zM47 881
c0 5 2 15 11 15c3 0 6 -1 10 -3c43 -27 89 -81 89 -135c0 -25 -12 -58 -41 -58c-23 0 -63 29 -70 49c-1 4 -2 16 -2 32c0 40 3 100 3 100z" />
</svg>
