<?xml version="1.0" standalone="no"?>
<!DOCTYPE svg PUBLIC "-//W3C//DTD SVG 1.1//EN" "http://www.w3.org/Graphics/SVG/1.1/DTD/svg11.dtd" >
<svg xmlns="http://www.w3.org/2000/svg" xmlns:xlink="http://www.w3.org/1999/xlink" version="1.1" viewBox="-10 0 188 1000">
   <path fill="currentColor"
d="M141 619l15 -5c1 -1 3 -1 4 -1c4 0 8 3 8 8v502c0 7 -6 12 -12 12h-13c-7 0 -12 -5 -12 -12v-149c0 -8 -7 -11 -17 -11c-29 0 -85 24 -99 30c-1 1 -3 1 -4 1l-2 1c-6 0 -9 -3 -9 -9v-515c0 -7 5 -12 12 -12h13c6 0 12 5 12 12v167c0 4 4 5 10 5c26 0 90 -23 90 -23
c1 0 2 -1 4 -1zM37 761v103c0 4 5 6 12 6c25 0 82 -23 82 -41v-103c0 -4 -3 -5 -9 -5c-24 0 -85 26 -85 40z" />
</svg>
