<?xml version="1.0" standalone="no"?>
<!DOCTYPE svg PUBLIC "-//W3C//DTD SVG 1.1//EN" "http://www.w3.org/Graphics/SVG/1.1/DTD/svg11.dtd" >
<svg xmlns="http://www.w3.org/2000/svg" xmlns:xlink="http://www.w3.org/1999/xlink" version="1.1" viewBox="-10 0 505 1000">
   <path fill="currentColor"
d="M373 179v10c34 -1 84 -62 91 -67c3 -2 6 -4 11 -4c2 1 10 5 10 11c0 1 -1 2 -1 4c-2 13 -27 101 -27 101l-297 1300c-4 12 -8 16 -40 16c-23 0 -29 -6 -29 -16c2 -5 72 -288 74 -295c1 -1 1 -3 1 -4c0 -3 -2 -5 -6 -5l-1 1c-13 6 -22 10 -35 14l-1 1c-12 4 -27 7 -41 7
c-38 0 -82 -26 -82 -68c0 -38 31 -68 68 -68c38 0 68 30 68 68l3 10c14 -1 33 -2 46 -36c8 -19 40 -160 42 -168c0 -4 -2 -8 -6 -8c-1 0 -3 0 -4 1c-13 6 -21 10 -35 15c-12 4 -26 7 -40 7c-38 0 -82 -27 -82 -69c0 -37 30 -68 68 -68c37 0 68 31 68 68c0 4 -1 7 -1 10
c15 0 45 -11 53 -38c5 -16 35 -138 38 -153c1 -4 2 -8 2 -11c0 -6 -2 -10 -6 -10c-2 0 -4 1 -6 2c-13 6 -21 10 -35 15c-12 4 -26 7 -40 7c-38 0 -83 -27 -83 -69c0 -37 31 -68 68 -68c38 0 68 31 68 68v10c16 0 51 -20 56 -40l39 -156c1 -4 2 -9 2 -14c0 -7 -1 -13 -5 -13
c-1 0 -2 0 -3 1c-13 6 -31 15 -45 20c-12 4 -28 6 -42 6c-22 0 -35 -5 -53 -17c-16 -12 -28 -30 -28 -51c0 -37 31 -68 68 -68c38 0 68 31 68 68v10c19 0 60 -30 64 -45c4 -14 35 -138 39 -157c1 -3 1 -6 1 -8c0 -9 -6 -13 -12 -13c-2 0 -6 1 -8 2c-12 6 -21 10 -34 14l-1 1
c-12 4 -27 7 -41 7c-18 0 -40 -6 -54 -18c-16 -12 -28 -30 -28 -50c0 -38 31 -68 68 -68c38 0 68 30 68 68z" />
</svg>
