<?xml version="1.0" standalone="no"?>
<!DOCTYPE svg PUBLIC "-//W3C//DTD SVG 1.1//EN" "http://www.w3.org/Graphics/SVG/1.1/DTD/svg11.dtd" >
<svg xmlns="http://www.w3.org/2000/svg" xmlns:xlink="http://www.w3.org/1999/xlink" version="1.1" viewBox="-10 0 383 1000">
   <path fill="currentColor"
d="M353 381c2 0 10 2 10 11c0 1 -1 2 -1 4c-2 12 -26 101 -26 101s-172 770 -175 782c-4 11 -7 21 -39 21c-21 0 -27 -8 -27 -16c0 -2 0 -4 1 -6c2 -7 71 -282 71 -286c0 -3 -3 -6 -6 -6c-1 0 -2 0 -3 1c-23 13 -51 22 -78 22c-38 0 -80 -27 -80 -68c0 -38 31 -68 68 -68
c38 0 68 30 68 68c0 3 0 6 -1 10c15 -1 46 -14 51 -35l40 -164c0 -5 -2 -13 -7 -13c-1 0 -2 0 -3 1c-23 12 -49 22 -75 22c-10 0 -19 -2 -27 -4c-10 -3 -19 -7 -27 -14c-16 -12 -28 -30 -28 -50c0 -38 30 -68 68 -68c37 0 68 30 68 68c0 3 0 6 -1 9c16 0 49 -20 54 -36
l39 -160v-1l1 -2c0 -7 -4 -17 -11 -17c-1 0 -3 0 -4 1c-23 12 -50 22 -76 22c-10 0 -18 -2 -26 -4c-10 -3 -20 -7 -28 -14c-16 -12 -28 -30 -28 -50c0 -38 31 -68 68 -68c38 0 68 30 68 68v9c34 0 84 -61 91 -66c3 -2 6 -4 11 -4z" />
</svg>
