<?xml version="1.0" standalone="no"?>
<!DOCTYPE svg PUBLIC "-//W3C//DTD SVG 1.1//EN" "http://www.w3.org/Graphics/SVG/1.1/DTD/svg11.dtd" >
<svg xmlns="http://www.w3.org/2000/svg" xmlns:xlink="http://www.w3.org/1999/xlink" version="1.1" viewBox="-10 0 675 1000">
   <path fill="currentColor"
d="M34 961c0 4 -4 7 -10 7h-14c-6 0 -10 -3 -10 -7v-323c0 -4 4 -8 10 -8h14c6 0 10 4 10 8v323zM97 961c0 4 -5 7 -10 7h-14c-6 0 -10 -3 -10 -7v-323c0 -4 4 -8 10 -8h14c5 0 10 4 10 8v323zM592 961c0 4 -5 7 -10 7h-15c-5 0 -10 -3 -10 -7v-323c0 -4 5 -8 10 -8h15
c5 0 10 4 10 8v323zM655 961c0 4 -5 7 -11 7h-14c-5 0 -11 -3 -11 -7v-323c0 -4 6 -8 11 -8h14c6 0 11 4 11 8v323zM332 663c102 0 224 58 224 136c0 75 -57 137 -235 137c-161 0 -223 -66 -223 -137c0 -75 90 -136 234 -136zM218 731c-2 8 -3 16 -3 25c0 35 17 72 37 98
c27 31 60 57 104 57c49 0 82 -23 82 -77c0 -66 -60 -145 -134 -145c-34 0 -74 5 -86 42z" />
</svg>
