<?xml version="1.0" standalone="no"?>
<!DOCTYPE svg PUBLIC "-//W3C//DTD SVG 1.1//EN" "http://www.w3.org/Graphics/SVG/1.1/DTD/svg11.dtd" >
<svg xmlns="http://www.w3.org/2000/svg" xmlns:xlink="http://www.w3.org/1999/xlink" version="1.1" viewBox="-10 0 359 1000">
   <path fill="currentColor"
d="M326 695l-306 103c-1 1 -3 1 -4 1c-7 0 -11 -8 -14 -15c-1 -3 -2 -6 -2 -9c0 -5 3 -10 14 -15c0 0 214 -73 225 -76c6 -2 8 -4 8 -7s-2 -6 -7 -7c-10 -4 -226 -77 -226 -77c-11 -4 -14 -9 -14 -14c0 -3 1 -6 2 -10c3 -8 6 -14 15 -14c1 0 5 1 9 2l300 102
c13 4 13 10 13 18s0 15 -13 18z" />
</svg>
