<?xml version="1.0" standalone="no"?>
<!DOCTYPE svg PUBLIC "-//W3C//DTD SVG 1.1//EN" "http://www.w3.org/Graphics/SVG/1.1/DTD/svg11.dtd" >
<svg xmlns="http://www.w3.org/2000/svg" xmlns:xlink="http://www.w3.org/1999/xlink" version="1.1" viewBox="-11 0 256 1000">
   <path fill="currentColor"
d="M126 553l108 231c1 1 1 3 1 5c0 6 -4 10 -11 11h-68c-4 0 -8 -2 -11 -6c0 0 -56 -119 -57 -123c-2 -2 -4 -3 -6 -3s-3 1 -4 3c-2 4 -56 123 -56 123c-2 5 -7 7 -11 7c-1 0 -4 0 -5 -1c-5 -1 -7 -6 -7 -11c0 -2 0 -3 1 -5l106 -231s3 -6 10 -6c4 0 7 2 10 6z" />
</svg>
